<svg width="15" height="15" viewBox="0 0 15 15" fill="none" xmlns="http://www.w3.org/2000/svg">
<path d="M7.24744 12C7.4132 12 7.57217 11.9342 7.68938 11.8169C7.80659 11.6997 7.87244 11.5408 7.87244 11.375L7.87244 4.75625L9.92869 6.81875C10.0464 6.93644 10.206 7.00256 10.3724 7.00256C10.5389 7.00256 10.6985 6.93644 10.8162 6.81875C10.9339 6.70106 11 6.54144 11 6.375C11 6.20856 10.9339 6.04894 10.8162 5.93125L7.69119 2.80625C7.63309 2.74767 7.56397 2.70117 7.4878 2.66944C7.41164 2.63771 7.32995 2.62137 7.24744 2.62137C7.16494 2.62137 7.08324 2.63771 7.00708 2.66944C6.93092 2.70117 6.86179 2.74767 6.80369 2.80625L3.67869 5.93125C3.62042 5.98952 3.57419 6.0587 3.54266 6.13484C3.51112 6.21098 3.49489 6.29259 3.49489 6.375C3.49489 6.45741 3.51112 6.53902 3.54266 6.61516C3.57419 6.69129 3.62042 6.76047 3.67869 6.81875C3.73697 6.87702 3.80615 6.92325 3.88229 6.95479C3.95843 6.98632 4.04003 7.00256 4.12244 7.00256C4.20485 7.00256 4.28646 6.98632 4.3626 6.95479C4.43874 6.92325 4.50792 6.87702 4.56619 6.81875L6.62244 4.75625L6.62244 11.375C6.62244 11.5408 6.68829 11.6997 6.8055 11.8169C6.92271 11.9342 7.08168 12 7.24744 12Z" fill="#016DB5"/>
</svg>
