<svg width="10" height="10" viewBox="0 0 10 10" fill="none" xmlns="http://www.w3.org/2000/svg">
<circle cx="5" cy="5" r="5" fill="white"/>
<path fill-rule="evenodd" clip-rule="evenodd" d="M6.29844 3.33L5.82781 3.33031C5.45875 3.33031 5.38719 3.50563 5.38719 3.76281V4.33031H6.2675L6.15281 5.21937H5.38719V7.5H4.46938V5.21937H3.70187V4.33031H4.46938V3.675C4.46938 2.91406 4.93406 2.5 5.6125 2.5C5.9375 2.5 6.21688 2.52406 6.29844 2.535V3.33ZM5 0C2.23875 0 0 2.23844 0 5C0 7.76125 2.23875 10 5 10C7.76156 10 10 7.76125 10 5C10 2.23844 7.76156 0 5 0Z" fill="#3B5998"/>
</svg>
