<svg width="30" height="30" viewBox="0 0 30 30" fill="none" xmlns="http://www.w3.org/2000/svg">
<path fill-rule="evenodd" clip-rule="evenodd" d="M16.3387 14.1423L14.6822 13.7748C14.0522 13.6304 13.3266 13.441 13.3266 12.8466C13.3266 12.2523 13.8356 11.836 14.7544 11.836C16.605 11.836 16.4362 13.1082 17.355 13.1082C17.8387 13.1082 18.2625 12.8232 18.2625 12.3348C18.2625 11.1938 16.4363 10.3379 14.8875 10.3379C13.2056 10.3379 11.415 11.0513 11.415 12.9535C11.415 13.8695 11.7422 14.8445 13.5441 15.2963L15.7828 15.8551C16.4597 16.022 16.6294 16.4026 16.6294 16.7467C16.6294 17.3176 16.0612 17.8763 15.0328 17.8763C13.0238 17.8763 13.3022 16.3304 12.2259 16.3304C11.7422 16.3304 11.3906 16.6632 11.3906 17.1395C11.3906 18.0667 12.5166 19.3032 15.0328 19.3032C17.4272 19.3032 18.6131 18.1492 18.6131 16.6042C18.6131 15.6057 18.1537 14.5463 16.3387 14.1423Z" fill="#44A2E2"/>
<path fill-rule="evenodd" clip-rule="evenodd" d="M21.2719 21.2541C20.4797 22.0462 19.4278 22.4822 18.3075 22.4822C17.5819 22.4822 16.8722 22.2937 16.245 21.9384C15.8372 22.0106 15.42 22.0491 15.0037 22.0491C14.0475 22.0491 13.1203 21.8616 12.2475 21.4912C11.4028 21.135 10.6462 20.6241 9.99469 19.9734C9.345 19.3237 8.83406 18.5662 8.47781 17.7225C8.10844 16.8487 7.92094 15.9216 7.92094 14.9653C7.92094 14.5556 7.9575 14.1459 8.02781 13.7447C7.68281 13.125 7.5 12.4247 7.5 11.7112C7.5 10.5919 7.93594 9.53813 8.72813 8.74687C9.52031 7.95375 10.5731 7.51781 11.6934 7.51781C12.3797 7.51781 13.0566 7.68937 13.6594 8.01C13.6613 8.00906 13.6622 8.00906 13.6622 8.00906C14.1019 7.92469 14.5538 7.8825 15.0037 7.8825C15.96 7.8825 16.8881 8.07 17.7609 8.43937C18.6038 8.79562 19.3622 9.30656 20.0119 9.95719C20.6625 10.6069 21.1734 11.3644 21.5297 12.2081C21.9 13.0809 22.0875 14.0091 22.0875 14.9653C22.0875 15.3966 22.0462 15.8278 21.9694 16.2488C22.3162 16.8713 22.5 17.5744 22.5 18.2887C22.5 19.4091 22.0641 20.4628 21.2719 21.2541ZM15 0C6.71531 0 0 6.71625 0 15C0 23.2847 6.71531 30 15 30C23.2847 30 30 23.2847 30 15C30 6.71625 23.2847 0 15 0" fill="#44A2E2"/>
</svg>
