<svg width="10" height="10" viewBox="0 0 10 10" fill="none" xmlns="http://www.w3.org/2000/svg">
<g clip-path="url(#clip0_53_3772)">
<path d="M0.488373 9.99997C0.391786 9.99999 0.297365 9.97136 0.21705 9.91771C0.136736 9.86406 0.0741379 9.78779 0.0371735 9.69856C0.000209163 9.60933 -0.00946059 9.51114 0.00938739 9.41641C0.0282354 9.32168 0.0747543 9.23467 0.14306 9.16638L9.1665 0.142942C9.25808 0.051359 9.38229 -9.15527e-05 9.51181 -9.15527e-05C9.64133 -9.15527e-05 9.76554 0.051359 9.85712 0.142942C9.9487 0.234524 10.0002 0.358737 10.0002 0.488254C10.0002 0.617771 9.9487 0.741984 9.85712 0.833567L0.833685 9.857C0.78838 9.9024 0.734551 9.9384 0.675292 9.96294C0.616033 9.98747 0.55251 10.0001 0.488373 9.99997Z" fill="black"/>
<path d="M9.51374 9.99997C9.4496 10.0001 9.38608 9.98747 9.32682 9.96294C9.26756 9.9384 9.21373 9.9024 9.16842 9.857L0.144986 0.833567C0.0534037 0.741984 0.00195313 0.617771 0.00195312 0.488254C0.00195313 0.358737 0.0534037 0.234524 0.144986 0.142942C0.236569 0.051359 0.360781 -9.15527e-05 0.490299 -9.15527e-05C0.619816 -9.15527e-05 0.744029 0.051359 0.835611 0.142942L9.85905 9.16638C9.92735 9.23467 9.97387 9.32168 9.99272 9.41641C10.0116 9.51114 10.0019 9.60933 9.96494 9.69856C9.92797 9.78779 9.86537 9.86406 9.78506 9.91771C9.70474 9.97136 9.61032 9.99999 9.51374 9.99997Z" fill="black"/>
</g>
<defs>
<clipPath id="clip0_53_3772">
<rect width="10" height="10" fill="white"/>
</clipPath>
</defs>
</svg>
