<svg width="16" height="14" viewBox="0 0 16 14" fill="none" xmlns="http://www.w3.org/2000/svg">
<path d="M15.5 12V9.5C15.5 9.33424 15.4342 9.17527 15.3169 9.05806C15.1997 8.94085 15.0408 8.875 14.875 8.875C14.7092 8.875 14.5503 8.94085 14.4331 9.05806C14.3158 9.17527 14.25 9.33424 14.25 9.5V12C14.25 12.1658 14.1842 12.3247 14.0669 12.4419C13.9497 12.5592 13.7908 12.625 13.625 12.625H2.375C2.20924 12.625 2.05027 12.5592 1.93306 12.4419C1.81585 12.3247 1.75 12.1658 1.75 12V9.5C1.75 9.33424 1.68415 9.17527 1.56694 9.05806C1.44973 8.94085 1.29076 8.875 1.125 8.875C0.95924 8.875 0.800269 8.94085 0.683058 9.05806C0.565848 9.17527 0.5 9.33424 0.5 9.5V12C0.5 12.4973 0.697544 12.9742 1.04917 13.3258C1.40081 13.6775 1.87772 13.875 2.375 13.875H13.625C14.1223 13.875 14.5992 13.6775 14.9508 13.3258C15.3025 12.9742 15.5 12.4973 15.5 12ZM11.5125 8.7375L8.3875 11.2375C8.27716 11.3247 8.14063 11.3721 8 11.3721C7.85937 11.3721 7.72284 11.3247 7.6125 11.2375L4.4875 8.7375C4.37364 8.63002 4.30426 8.48372 4.2931 8.32753C4.28195 8.17135 4.32982 8.01667 4.42725 7.8941C4.52468 7.77152 4.66457 7.68998 4.81924 7.66562C4.97392 7.64125 5.1321 7.67582 5.2625 7.7625L7.375 9.45V0.75C7.375 0.58424 7.44085 0.425269 7.55806 0.308058C7.67527 0.190848 7.83424 0.125 8 0.125C8.16576 0.125 8.32473 0.190848 8.44194 0.308058C8.55915 0.425269 8.625 0.58424 8.625 0.75V9.45L10.7375 7.7625C10.8004 7.70309 10.875 7.6574 10.9565 7.62833C11.0381 7.59925 11.1247 7.58742 11.211 7.59359C11.2974 7.59976 11.3815 7.62378 11.458 7.66415C11.5346 7.70452 11.6019 7.76035 11.6558 7.8281C11.7096 7.89585 11.7488 7.97405 11.7709 8.05773C11.7929 8.14142 11.7974 8.22878 11.7839 8.31427C11.7704 8.39976 11.7394 8.48153 11.6926 8.55438C11.6459 8.62723 11.5846 8.68959 11.5125 8.7375Z" fill="white"/>
</svg>
