<svg width="15" height="15" viewBox="0 0 15 15" fill="none" xmlns="http://www.w3.org/2000/svg">
<g clip-path="url(#clip0_53_2340)">
<path d="M13.0841 3.6443L9.56859 0.12876C9.48653 0.0466699 9.37453 0 9.25781 0H3.10547C2.37853 0 1.78711 0.591416 1.78711 1.31836V13.6816C1.78711 14.4086 2.37853 15 3.10547 15H11.8945C12.6215 15 13.2129 14.4086 13.2129 13.6816V3.95508C13.2129 3.83525 13.1626 3.72272 13.0841 3.6443ZM9.69727 1.50038L11.7125 3.51562H10.1367C9.8944 3.51562 9.69727 3.31849 9.69727 3.07617V1.50038ZM11.8945 14.1211H3.10547C2.86315 14.1211 2.66602 13.924 2.66602 13.6816V1.31836C2.66602 1.07604 2.86315 0.878906 3.10547 0.878906H8.81836V3.07617C8.81836 3.80312 9.40978 4.39453 10.1367 4.39453H12.334V13.6816C12.334 13.924 12.1368 14.1211 11.8945 14.1211Z" fill="#016DB5"/>
<path d="M10.1367 6.21094H4.86328C4.62059 6.21094 4.42383 6.4077 4.42383 6.65039C4.42383 6.89309 4.62059 7.08984 4.86328 7.08984H10.1367C10.3794 7.08984 10.5762 6.89309 10.5762 6.65039C10.5762 6.4077 10.3794 6.21094 10.1367 6.21094Z" fill="#016DB5"/>
<path d="M10.1367 7.96875H4.86328C4.62059 7.96875 4.42383 8.16551 4.42383 8.4082C4.42383 8.6509 4.62059 8.84766 4.86328 8.84766H10.1367C10.3794 8.84766 10.5762 8.6509 10.5762 8.4082C10.5762 8.16551 10.3794 7.96875 10.1367 7.96875Z" fill="#016DB5"/>
<path d="M10.1367 9.72656H4.86328C4.62059 9.72656 4.42383 9.92332 4.42383 10.166C4.42383 10.4087 4.62059 10.6055 4.86328 10.6055H10.1367C10.3794 10.6055 10.5762 10.4087 10.5762 10.166C10.5762 9.92332 10.3794 9.72656 10.1367 9.72656Z" fill="#016DB5"/>
<path d="M8.37891 11.4844H4.86328C4.62059 11.4844 4.42383 11.6811 4.42383 11.9238C4.42383 12.1665 4.62059 12.3633 4.86328 12.3633H8.37891C8.6216 12.3633 8.81836 12.1665 8.81836 11.9238C8.81836 11.6811 8.6216 11.4844 8.37891 11.4844Z" fill="#016DB5"/>
</g>
<defs>
<clipPath id="clip0_53_2340">
<rect width="15" height="15" fill="white"/>
</clipPath>
</defs>
</svg>
