<svg width="15" height="15" viewBox="0 0 15 15" fill="none" xmlns="http://www.w3.org/2000/svg">
<path d="M5.30273 12.7733C5.30273 13.5003 5.89414 14.0917 6.62107 14.0917C7.34801 14.0917 7.93941 13.5003 7.93941 12.7733C7.93941 12.0464 7.34801 11.455 6.62107 11.455C5.89414 11.455 5.30273 12.0464 5.30273 12.7733ZM6.62107 12.3339C6.86338 12.3339 7.06052 12.531 7.06052 12.7733C7.06052 13.0156 6.86338 13.2128 6.62107 13.2128C6.37876 13.2128 6.18163 13.0156 6.18163 12.7733C6.18163 12.531 6.37876 12.3339 6.62107 12.3339Z" fill="#016DB5"/>
<path d="M9.72656 12.7733C9.72656 13.5003 10.318 14.0917 11.0449 14.0917C11.7718 14.0917 12.3632 13.5003 12.3632 12.7733C12.3632 12.0464 11.7718 11.455 11.0449 11.455C10.318 11.455 9.72656 12.0464 9.72656 12.7733ZM11.0449 12.3339C11.2872 12.3339 11.4843 12.531 11.4843 12.7733C11.4843 13.0156 11.2872 13.2128 11.0449 13.2128C10.8026 13.2128 10.6055 13.0156 10.6055 12.7733C10.6055 12.531 10.8026 12.3339 11.0449 12.3339Z" fill="#016DB5"/>
<path d="M14.5603 2.66608H3.43697C3.2865 2.13936 3.14629 1.64859 3.02585 1.22704C2.97197 1.03837 2.79951 0.908295 2.60331 0.908295H0.439446C0.196755 0.908295 0 1.10505 0 1.34774C0 1.59043 0.196755 1.78719 0.439446 1.78719H2.27182C2.76324 3.50736 3.91207 7.52838 4.3937 9.21412L4.22721 9.54708C3.7885 10.4246 4.42742 11.455 5.40639 11.455H12.8025C13.0452 11.455 13.242 11.2583 13.242 11.0156C13.242 10.7729 13.0452 10.5761 12.8025 10.5761H5.40639C5.07956 10.5761 4.86731 10.2322 5.01332 9.94015L5.13478 9.69722H12.8025C12.9987 9.69722 13.1712 9.56717 13.2251 9.3785L14.9829 3.22626C15.0629 2.94604 14.8524 2.66608 14.5603 2.66608ZM12.4711 8.81833H5.19469C4.95525 7.98024 4.28513 5.63483 3.68807 3.54497H13.9778L12.4711 8.81833Z" fill="#016DB5"/>
</svg>
