<svg width="15" height="15" viewBox="0 0 15 15" fill="none" xmlns="http://www.w3.org/2000/svg">
<path d="M9.8125 7.32334C10.4274 6.84249 10.877 6.18172 11.0984 5.43319C11.3199 4.68466 11.3022 3.88567 11.0479 3.14765C10.7936 2.40963 10.3154 1.76936 9.67981 1.31613C9.04426 0.862894 8.28311 0.619293 7.5025 0.619293C6.72189 0.619293 5.96074 0.862894 5.32519 1.31613C4.68964 1.76936 4.21137 2.40963 3.95707 3.14765C3.70277 3.88567 3.68512 4.68466 3.90658 5.43319C4.12805 6.18172 4.57758 6.84249 5.1925 7.32334C4.03073 7.7856 3.03417 8.58543 2.33142 9.61962C1.62867 10.6538 1.25199 11.8749 1.25 13.1252V13.7502C1.25 13.916 1.31585 14.0749 1.43306 14.1922C1.55027 14.3094 1.70924 14.3752 1.875 14.3752H13.125C13.2908 14.3752 13.4497 14.3094 13.5669 14.1922C13.6842 14.0749 13.75 13.916 13.75 13.7502V13.1252C13.7484 11.8754 13.3725 10.6548 12.6707 9.62068C11.9688 8.58656 10.9733 7.78639 9.8125 7.32334ZM5 4.37522C5 3.88076 5.14662 3.39741 5.42133 2.98629C5.69603 2.57517 6.08648 2.25474 6.54329 2.06552C7.00011 1.8763 7.50277 1.82679 7.98773 1.92325C8.47268 2.01972 8.91814 2.25782 9.26777 2.60745C9.6174 2.95708 9.8555 3.40254 9.95196 3.88749C10.0484 4.37244 9.99892 4.87511 9.8097 5.33192C9.62048 5.78874 9.30005 6.17919 8.88893 6.45389C8.4778 6.72859 7.99445 6.87522 7.5 6.87522C6.83696 6.87522 6.20107 6.61182 5.73223 6.14298C5.26339 5.67414 5 5.03826 5 4.37522ZM2.5 13.1252C2.5 11.7991 3.02678 10.5274 3.96447 9.58968C4.90215 8.652 6.17392 8.12522 7.5 8.12522C8.82608 8.12522 10.0979 8.652 11.0355 9.58968C11.9732 10.5274 12.5 11.7991 12.5 13.1252H2.5Z" fill="#016DB5"/>
</svg>
