<svg width="15" height="15" viewBox="0 0 15 15" fill="none" xmlns="http://www.w3.org/2000/svg">
<path d="M10.7812 5.625H5.15625V4.08281C5.15625 3.49726 5.38886 2.9357 5.8029 2.52165C6.21695 2.10761 6.77851 1.875 7.36406 1.875H7.63594C8.22149 1.875 8.78305 2.10761 9.1971 2.52165C9.61114 2.9357 9.84375 3.49726 9.84375 4.08281C9.84375 4.20713 9.89314 4.32636 9.98104 4.41427C10.069 4.50218 10.1882 4.55156 10.3125 4.55156C10.4368 4.55156 10.556 4.50218 10.644 4.41427C10.7319 4.32636 10.7812 4.20713 10.7812 4.08281C10.78 3.249 10.4482 2.4497 9.85864 1.86011C9.26905 1.27052 8.46975 0.93874 7.63594 0.9375H7.36406C6.53025 0.93874 5.73095 1.27052 5.14136 1.86011C4.55177 2.4497 4.21999 3.249 4.21875 4.08281V5.625C3.84579 5.625 3.4881 5.77316 3.22438 6.03688C2.96066 6.3006 2.8125 6.65829 2.8125 7.03125V11.3906C2.81374 12.0989 3.09564 12.7778 3.59644 13.2786C4.09725 13.7794 4.77613 14.0613 5.48438 14.0625H9.51562C10.2239 14.0613 10.9028 13.7794 11.4036 13.2786C11.9044 12.7778 12.1863 12.0989 12.1875 11.3906V7.03125C12.1875 6.65829 12.0393 6.3006 11.7756 6.03688C11.5119 5.77316 11.1542 5.625 10.7812 5.625ZM11.25 11.3906C11.25 11.8506 11.0673 12.2918 10.742 12.617C10.4168 12.9423 9.97561 13.125 9.51562 13.125H5.48438C5.02439 13.125 4.58325 12.9423 4.25799 12.617C3.93273 12.2918 3.75 11.8506 3.75 11.3906V7.03125C3.75 6.90693 3.79939 6.7877 3.88729 6.69979C3.9752 6.61189 4.09443 6.5625 4.21875 6.5625H10.7812C10.9056 6.5625 11.0248 6.61189 11.1127 6.69979C11.2006 6.7877 11.25 6.90693 11.25 7.03125V11.3906ZM7.96875 9.7125V11.25C7.96875 11.3743 7.91936 11.4935 7.83146 11.5815C7.74355 11.6694 7.62432 11.7188 7.5 11.7188C7.37568 11.7188 7.25645 11.6694 7.16854 11.5815C7.08064 11.4935 7.03125 11.3743 7.03125 11.25V9.7125C6.85252 9.60931 6.71284 9.45003 6.63386 9.25937C6.55489 9.0687 6.54103 8.8573 6.59444 8.65796C6.64786 8.45861 6.76556 8.28247 6.92929 8.15683C7.09302 8.0312 7.29362 7.9631 7.5 7.9631C7.70638 7.9631 7.90699 8.0312 8.07071 8.15683C8.23444 8.28247 8.35214 8.45861 8.40556 8.65796C8.45897 8.8573 8.44511 9.0687 8.36614 9.25937C8.28716 9.45003 8.14748 9.60931 7.96875 9.7125Z" fill="#016DB5"/>
</svg>
