<svg width="10" height="10" viewBox="0 0 10 10" fill="none" xmlns="http://www.w3.org/2000/svg">
<circle cx="5" cy="5" r="5" fill="white"/>
<path fill-rule="evenodd" clip-rule="evenodd" d="M7.5 7.49531H6.46406V5.87406C6.46406 5.4875 6.45719 4.99031 5.92562 4.99031C5.38656 4.99031 5.30438 5.41156 5.30438 5.84656V7.49531H4.26937V4.16156H5.2625V4.6175H5.27687C5.415 4.35531 5.75313 4.07875 6.25719 4.07875C7.30625 4.07875 7.5 4.76906 7.5 5.66688V7.49531ZM3.10125 3.70625C2.76844 3.70625 2.5 3.43688 2.5 3.10531C2.5 2.77375 2.76844 2.50437 3.10125 2.50437C3.4325 2.50437 3.70156 2.77375 3.70156 3.10531C3.70156 3.43688 3.4325 3.70625 3.10125 3.70625ZM3.61937 7.49531H2.58219V4.16156H3.61937V7.49531ZM5 0C2.23844 0 0 2.23844 0 5C0 7.76125 2.23844 10 5 10C7.76156 10 10 7.76125 10 5C10 2.23844 7.76156 0 5 0Z" fill="#2E78B6"/>
</svg>
