<svg width="15" height="15" viewBox="0 0 15 15" fill="none" xmlns="http://www.w3.org/2000/svg">
<path d="M0.908203 14.5605C0.908203 14.8033 1.10493 15 1.34766 15H3.98438C4.40689 15 4.7834 14.8 5.02487 14.4898C6.09604 14.8282 7.20795 15 8.33267 15H11.8945C12.6215 15 13.2129 14.4086 13.2129 13.6816C13.2129 13.5101 13.1796 13.3462 13.1197 13.1957C13.6791 13.0433 14.0918 12.5309 14.0918 11.9238C14.0918 11.5865 13.9642 11.2784 13.755 11.0449C13.9643 10.8115 14.0918 10.5034 14.0918 10.166C14.0918 9.82864 13.9642 9.52057 13.755 9.28711C13.9643 9.05365 14.0918 8.74557 14.0918 8.4082C14.0918 7.68127 13.5004 7.08984 12.7734 7.08984H10.368C10.4021 7.00905 10.4374 6.92711 10.4733 6.8438C10.7399 6.22547 11.0156 5.58609 11.0156 4.89258C11.0156 3.6779 10.0331 2.66602 8.81836 2.66602C8.60893 2.66602 8.42857 2.81387 8.38749 3.01929L8.16307 4.14139C7.86827 5.61516 7.54269 5.78201 6.33133 6.40274C6.01112 6.56673 5.63496 6.75957 5.19596 7.00985C4.99386 6.54053 4.52694 6.21094 3.98438 6.21094H1.34766C1.10493 6.21094 0.908203 6.40766 0.908203 6.65039V14.5605ZM6.73199 7.18494C7.38796 6.84883 7.86175 6.6061 8.23277 6.19514C8.61214 5.7748 8.84171 5.22972 9.02493 4.31374L9.16855 3.59528C9.7197 3.75664 10.1367 4.28547 10.1367 4.89258C10.1367 5.40459 9.89754 5.95928 9.66614 6.49578C9.58225 6.69044 9.49665 6.88946 9.42043 7.08984H8.81836C8.57563 7.08984 8.37891 7.28657 8.37891 7.5293C8.37891 7.77203 8.57563 7.96875 8.81836 7.96875H12.7734C13.0157 7.96875 13.2129 8.16593 13.2129 8.4082C13.2129 8.65047 13.0157 8.84766 12.7734 8.84766H11.8945C11.6518 8.84766 11.4551 9.04438 11.4551 9.28711C11.4551 9.52984 11.6518 9.72656 11.8945 9.72656H12.7734C13.0157 9.72656 13.2129 9.92374 13.2129 10.166C13.2129 10.4083 13.0157 10.6055 12.7734 10.6055H11.8945C11.6518 10.6055 11.4551 10.8022 11.4551 11.0449C11.4551 11.2877 11.6518 11.4844 11.8945 11.4844H12.7734C13.0157 11.4844 13.2129 11.6816 13.2129 11.9238C13.2129 12.1661 13.0157 12.3633 12.7734 12.3633H11.8945C11.6518 12.3633 11.4551 12.56 11.4551 12.8027C11.4551 13.0455 11.6518 13.2422 11.8945 13.2422C12.1368 13.2422 12.334 13.4394 12.334 13.6816C12.334 13.9239 12.1368 14.1211 11.8945 14.1211H8.33267C7.30259 14.1211 6.28418 13.9645 5.30273 13.656V7.96497C5.86933 7.62714 6.34323 7.38419 6.73199 7.18494ZM1.78711 7.08984H3.98438C4.22665 7.08984 4.42383 7.28703 4.42383 7.5293V13.6816C4.42383 13.9239 4.22665 14.1211 3.98438 14.1211H1.78711V7.08984Z" fill="#C4C4C4"/>
<path d="M3.54492 12.8027C3.54492 13.0455 3.3482 13.2422 3.10547 13.2422C2.86274 13.2422 2.66602 13.0455 2.66602 12.8027C2.66602 12.56 2.86274 12.3633 3.10547 12.3633C3.3482 12.3633 3.54492 12.56 3.54492 12.8027Z" fill="#C4C4C4"/>
<path d="M8.81836 0.439453V1.34766C8.81836 1.59039 9.01508 1.78711 9.25781 1.78711C9.50054 1.78711 9.69727 1.59039 9.69727 1.34766V0.439453C9.69727 0.196724 9.50054 0 9.25781 0C9.01508 0 8.81836 0.196724 8.81836 0.439453Z" fill="#C4C4C4"/>
<path d="M11.5838 1.16553L10.9622 1.78705C10.7906 1.95872 10.7906 2.23692 10.9622 2.40858C11.1339 2.58013 11.4121 2.58013 11.5838 2.40858L12.2052 1.78705C12.3768 1.61539 12.3768 1.33719 12.2052 1.16553C12.0335 0.993979 11.7553 0.993979 11.5838 1.16553Z" fill="#C4C4C4"/>
<path d="M6.31039 1.16553C6.13873 1.33719 6.13873 1.61539 6.31039 1.78705L6.9318 2.40858C7.10346 2.58013 7.38167 2.58013 7.55333 2.40858C7.72488 2.23692 7.72488 1.95872 7.55333 1.78705L6.9318 1.16553C6.76025 0.993979 6.48193 0.993979 6.31039 1.16553Z" fill="#C4C4C4"/>
</svg>
