<svg width="15" height="15" viewBox="0 0 15 15" fill="none" xmlns="http://www.w3.org/2000/svg">
<g clip-path="url(#clip0_120_1877)">
<path d="M14.8167 13.9331L10.5511 9.66756C11.3774 8.64695 11.8749 7.35008 11.8749 5.9376C11.8749 2.66389 9.21114 0.000152588 5.93742 0.000152588C2.6637 0.000152588 0 2.66386 0 5.93757C0 9.21129 2.66373 11.875 5.93745 11.875C7.34993 11.875 8.6468 11.3775 9.66741 10.5513L13.933 14.8169C14.0549 14.9387 14.2149 15 14.3749 15C14.5349 15 14.6949 14.9387 14.8168 14.8169C15.0611 14.5725 15.0611 14.1775 14.8167 13.9331ZM5.93745 10.625C3.35247 10.625 1.25 8.52256 1.25 5.93757C1.25 3.35259 3.35247 1.25012 5.93745 1.25012C8.52244 1.25012 10.6249 3.35259 10.6249 5.93757C10.6249 8.52256 8.52241 10.625 5.93745 10.625Z" fill="white"/>
</g>
<defs>
<clipPath id="clip0_120_1877">
<rect width="15" height="15" fill="white"/>
</clipPath>
</defs>
</svg>
