<svg width="50" height="50" viewBox="0 0 50 50" fill="none" xmlns="http://www.w3.org/2000/svg">
<path fill-rule="evenodd" clip-rule="evenodd" d="M25 47.5C37.4264 47.5 47.5 37.4267 47.5 25C47.5 12.5736 37.4267 2.49995 25 2.49995C12.5736 2.49995 2.49995 12.5736 2.49995 25C2.49995 37.4264 12.5736 47.5 25 47.5ZM25 50C38.807 50 50 38.807 50 25C50 11.1928 38.807 0 25 0C11.1928 0 0 11.1928 0 25C0 38.807 11.1928 50 25 50Z" fill="white"/>
<path fill-rule="evenodd" clip-rule="evenodd" d="M31.4962 24.9999L19.9997 17.3357V32.6644L31.4962 24.9999ZM33.8188 23.5439C34.858 24.2367 34.858 25.7634 33.8188 26.4562L20.2203 35.5221C19.0574 36.2974 17.4995 35.4635 17.4995 34.0658V15.9343C17.4995 14.5366 19.0574 13.7029 20.2203 14.4783L33.8188 23.5439Z" fill="white"/>
</svg>
