<svg width="15" height="15" viewBox="0 0 15 15" fill="none" xmlns="http://www.w3.org/2000/svg">
<g clip-path="url(#clip0_120_1853)">
<path d="M14.598 10.7384L11.2434 7.38298C11.8728 5.95399 11.6035 4.22132 10.4349 3.05247C8.91244 1.52961 6.44802 1.5294 4.92533 3.05247C3.4064 4.57176 3.4064 7.04382 4.92533 8.56311C6.13236 9.7704 7.90127 10.0003 9.31341 9.34745L12.6509 12.6857C13.189 13.2239 14.06 13.224 14.5981 12.6856C15.1348 12.1487 15.1347 11.2752 14.598 10.7384ZM5.5469 7.94167C4.37054 6.76505 4.37054 4.85056 5.5469 3.67391C6.72585 2.49466 8.63419 2.49446 9.81336 3.67391C10.9897 4.85056 10.9897 6.76505 9.81336 7.94167C8.63437 9.12095 6.72603 9.12112 5.5469 7.94167ZM13.9765 12.0642C13.7819 12.2589 13.467 12.259 13.2724 12.0643L10.0838 8.87487C10.3459 8.66855 10.5795 8.43165 10.7823 8.16498L13.9764 11.3598C14.1706 11.554 14.1706 11.87 13.9765 12.0642Z" fill="#FF601F"/>
<path d="M0.439473 7.17634H2.31344C2.55615 7.17634 2.75292 6.97957 2.75292 6.73687C2.75292 6.49416 2.55615 6.29739 2.31344 6.29739H0.439473C0.196767 6.29739 0 6.49416 0 6.73687C0 6.97957 0.196767 7.17634 0.439473 7.17634Z" fill="#FF601F"/>
<path d="M0.439473 9.05122H3.01619C3.2589 9.05122 3.45566 8.85445 3.45566 8.61174C3.45566 8.36904 3.2589 8.17227 3.01619 8.17227H0.439473C0.196767 8.17227 0 8.36904 0 8.61174C0 8.85445 0.196767 9.05122 0.439473 9.05122Z" fill="#FF601F"/>
<path d="M0.439473 10.9265H4.89019C5.1329 10.9265 5.32966 10.7298 5.32966 10.4871C5.32966 10.2444 5.1329 10.0476 4.89019 10.0476H0.439473C0.196767 10.0476 0 10.2444 0 10.4871C0 10.7298 0.196767 10.9265 0.439473 10.9265Z" fill="#FF601F"/>
<path d="M10.0437 11.9227H0.439473C0.196767 11.9227 0 12.1195 0 12.3622C0 12.6049 0.196767 12.8016 0.439473 12.8016H10.0437C10.2864 12.8016 10.4832 12.6049 10.4832 12.3622C10.4832 12.1195 10.2864 11.9227 10.0437 11.9227Z" fill="#FF601F"/>
</g>
<defs>
<clipPath id="clip0_120_1853">
<rect width="15" height="15" fill="white"/>
</clipPath>
</defs>
</svg>
