<svg width="10" height="10" viewBox="0 0 10 10" fill="none" xmlns="http://www.w3.org/2000/svg">
<circle cx="5" cy="5" r="5" fill="white"/>
<path fill-rule="evenodd" clip-rule="evenodd" d="M6.98812 3.98031C6.99 4.02438 6.99125 4.06844 6.99125 4.11312C6.99125 5.46844 5.95937 7.03156 4.0725 7.03156C3.49312 7.03156 2.95406 6.86188 2.5 6.57094C2.58031 6.58031 2.66188 6.585 2.74469 6.585C3.22531 6.585 3.6675 6.42125 4.01875 6.14594C3.56969 6.13781 3.19094 5.84125 3.06031 5.43375C3.12313 5.44563 3.18719 5.45187 3.25344 5.45187C3.34688 5.45187 3.4375 5.43937 3.52375 5.41594C3.05438 5.32187 2.70094 4.90719 2.70094 4.41031V4.39719C2.83906 4.47406 2.9975 4.52031 3.16563 4.52563C2.89031 4.34156 2.70906 4.0275 2.70906 3.67188C2.70906 3.48375 2.75969 3.3075 2.84813 3.15594C3.35406 3.77656 4.11 4.185 4.9625 4.22781C4.945 4.15281 4.93594 4.07438 4.93594 3.99406C4.93594 3.4275 5.39531 2.96813 5.96156 2.96813C6.25687 2.96813 6.52344 3.09281 6.71031 3.29219C6.94406 3.24625 7.16375 3.16094 7.36188 3.04344C7.28531 3.28281 7.1225 3.48375 6.91094 3.61094C7.11844 3.58594 7.31594 3.53094 7.5 3.44938C7.3625 3.655 7.18844 3.83563 6.98812 3.98031V3.98031ZM5 0C2.23844 0 0 2.23844 0 5C0 7.76125 2.23844 10 5 10C7.76156 10 10 7.76125 10 5C10 2.23844 7.76156 0 5 0" fill="#41A1F2"/>
</svg>
