<svg width="10" height="10" viewBox="0 0 10 10" fill="none" xmlns="http://www.w3.org/2000/svg">
<circle cx="5" cy="5" r="5" fill="white"/>
<path fill-rule="evenodd" clip-rule="evenodd" d="M7.5 5.18875C7.5 5.59344 7.45 5.99813 7.45 5.99813C7.45 5.99813 7.40125 6.3425 7.25125 6.49437C7.06125 6.69344 6.84812 6.69437 6.75031 6.70594C6.05062 6.75656 5 6.75812 5 6.75812C5 6.75812 3.7 6.74625 3.3 6.70812C3.18875 6.68719 2.93875 6.69344 2.74875 6.49437C2.59875 6.3425 2.55 5.99813 2.55 5.99813C2.55 5.99813 2.5 5.59344 2.5 5.18875V4.80938C2.5 4.40469 2.55 4.00031 2.55 4.00031C2.55 4.00031 2.59875 3.65562 2.74875 3.50375C2.93875 3.30469 3.15188 3.30375 3.24969 3.29219C3.94938 3.24156 4.99906 3.24156 4.99906 3.24156H5.00094C5.00094 3.24156 6.05062 3.24156 6.75031 3.29219C6.84812 3.30375 7.06125 3.30469 7.25125 3.50375C7.40125 3.65562 7.45 4.00031 7.45 4.00031C7.45 4.00031 7.5 4.40469 7.5 4.80938V5.18875ZM5 0C2.23844 0 0 2.23844 0 5C0 7.76125 2.23844 10 5 10C7.76156 10 10 7.76125 10 5C10 2.23844 7.76156 0 5 0Z" fill="#EA412C"/>
<path fill-rule="evenodd" clip-rule="evenodd" d="M4.48395 5.64841L5.83489 4.94841L4.48364 4.24341L4.48395 5.64841Z" fill="#EA412C"/>
</svg>
